# xmcd
#
# Track frame offsets: 
#        150
#        13468
#        28283
#        43377
#        58001
#        73962
#
# Disc length: 1217 seconds
#
# Revision: 0
# Processed by: cddbd v1.5.2PL0 Copyright (c) Steve Scherf et al.
# Submitted via: ExactAudioCopy v1.0b3
#
DISCID=6004bf06
DTITLE=Dallas Smith - Tippin' Point EP
DYEAR=2014
DGENRE=Country
TTITLE0=Tippin' Point
TTITLE1=Slow Rollin'
TTITLE2=This Town Ain't a Town
TTITLE3=A Girl Like You
TTITLE4=Wrong About That
TTITLE5=Jumped Right In (Live Acoustic)
EXTD=
EXTT0=
EXTT1=
EXTT2=
EXTT3=
EXTT4=
EXTT5=
PLAYORDER=
